# xmcd
#
# Track frame offsets:
#	150
#	17467
#	33822
#	50172
#	66637
#	85657
#	108570
#	124887
#	143495
#	160565
#	177150
#	192570
#
# Disc length: 2761 seconds
#
# Revision: 1
# Processed by: cddbd v1.5.1PL0 Copyright (c) Steve Scherf et al.
# Submitted via: CDex 1.50Beta5
#
DISCID=9e0ac70c
DTITLE=ハイ・ファイ・セット - Hi-Fi Set Sings Yuning
DYEAR=1900
DGENRE=Pop
TTITLE0=中央フリーウェイ
TTITLE1=雨のステーション
TTITLE2=冷たい雨
TTITLE3=海を見ていた午後
TTITLE4=十円木馬
TTITLE5=卒業写真
TTITLE6=スカイレストラン
TTITLE7=朝陽の中で微笑んで
TTITLE8=JE M’ENNUIE
TTITLE9=土曜の夜は羽田に来るの
TTITLE10=真夜中の面影
TTITLE11=FAREWELL PARTY
EXTD=
EXTT0=
EXTT1=
EXTT2=
EXTT3=
EXTT4=
EXTT5=
EXTT6=
EXTT7=
EXTT8=
EXTT9=
EXTT10=
EXTT11=
PLAYORDER=
